#!OML:ASF C:\ViconDB\ViconDB\414\Spring2016\041811\Spring2016.ASF
:FULLY-SPECIFIED
:DEGREES
209
root 10.5138 19.6627 -9.70188 193.102 46.9086 179.193
lowerback 3.53825 0.0378448 -10.7916
upperback -1.55922 -0.443 -2.0195
thorax -3.56306 0.0554282 3.96038
lowerneck -22.9109 -5.70637 -14.8035
upperneck 17.844 -7.90845 23.2542
head 11.3467 -1.83035 10.1335
rclavicle -2.50469e-014 2.70347e-014
rhumerus -53.6261 -23.6567 10.0234
rradius 27.3679
rwrist 45.4555
rhand -30.1294 -12.2841
rfingers 7.12502
rthumb -3.44246 -42.2361
lclavicle -2.50469e-014 2.70347e-014
lhumerus -35.386 -13.5264 6.93562
lradius 26.4561
lwrist -7.9962
lhand -28.1776 19.3945
lfingers 7.12502
lthumb -1.55743 49.3686
rfemur 4.22004 -244.476 20.6786
rtibia 27.7134
rfoot -89.7193 -46.1249
rtoes -19.3113
lfemur -20.6032 -23.5699 -6.10798
ltibia 21.7476
lfoot -23.5802 6.70265
ltoes -14.7789
210
root 10.4743 19.7274 -9.71739 193.891 48.3258 179.623
lowerback 3.66557 0.0842377 -10.8181
upperback -1.53077 -0.39919 -2.07349
thorax -3.61221 0.0786557 3.91609
lowerneck -22.9453 -5.85082 -14.7215
upperneck 17.6761 -8.11982 23.2018
head 11.335 -1.93305 10.0418
rclavicle -1.15295e-014 7.95139e-015
rhumerus -54.2337 -24.5009 10.9873
rradius 26.8416
rwrist 47.7179
rhand -29.0313 -12.593
rfingers 7.12502
rthumb -2.38193 -42.5595
lclavicle -1.15295e-014 7.95139e-015
lhumerus -34.9265 -13.0002 6.35594
lradius 26.4089
lwrist -7.63657
lhand -28.2134 19.8253
lfingers 7.12502
lthumb -1.59198 49.7991
rfemur -0.588453 -237.177 14.6326
rtibia 27.0347
rfoot -73.7958 -47.4584
rtoes -25.2742
lfemur -22.5426 -25.4604 -5.37669
ltibia 20.7805
lfoot -22.4664 5.84737
ltoes -15.7814
211
root 10.4223 19.7469 -9.74031 194.565 49.9806 180.204
lowerback 4.07028 0.178365 -10.6761
upperback -1.67338 -0.336564 -2.10388
thorax -4.00264 0.128424 3.80165
lowerneck -22.3736 -5.86133 -14.9766
upperneck 17.4825 -8.12328 23.3372
head 11.1733 -1.97977 10.1209
rclavicle -7.35503e-014 2.70347e-014
rhumerus -54.2801 -25.1474 12.0035
rradius 26.1132
rwrist 49.2497
rhand -28.9049 -11.7765
rfingers 7.12502
rthumb -2.2599 -41.7443
lclavicle -7.35503e-014 2.70347e-014
lhumerus -34.7688 -12.4205 5.53507
lradius 26.4425
lwrist -7.56421
lhand -28.3713 20.1125
lfingers 7.12502
lthumb -1.74451 50.0852
rfemur -4.10899 -229.433 10.2314
rtibia 26.4443
rfoot -56.6514 -48.4709
rtoes -27.6185
lfemur -24.3404 -27.4267 -4.40937
ltibia 20.0601
lfoot -21.3568 5.21281
ltoes -16.6998
212
root 10.3602 19.7296 -9.77404 195.339 51.7464 181.045
lowerback 4.38952 0.344911 -10.2516
upperback -1.66987 -0.140119 -2.18238
thorax -4.20709 0.220664 3.46947
lowerneck -22.025 -5.97536 -15.4037
upperneck 17.2655 -8.25247 23.7679
head 11.1097 -2.05137 10.3474
rclavicle 6.20208e-014 -4.29375e-014
rhumerus -54.5764 -26.3303 13.3835
rradius 25.698
rwrist 51.0864
rhand -28.7086 -11.4458
rfingers 7.12502
rthumb -2.07026 -41.4155
lclavicle 6.20208e-014 -4.29375e-014
lhumerus -34.3821 -11.84 4.71006
lradius 26.5013
lwrist -7.03347
lhand -28.6001 20.9418
lfingers 7.12502
lthumb -1.96545 50.9125
rfemur -6.56473 -223.008 7.52045
rtibia 25.992
rfoot -42.751 -48.1894
rtoes -28.8342
lfemur -25.8525 -26.9347 -4.03159
ltibia 19.7677
lfoot -19.8887 2.80318
ltoes -18.9412
213
root 10.2978 19.6698 -9.82312 196.084 53.8329 182.273
lowerback 4.80133 0.604311 -9.67872
upperback -1.56201 0.185132 -2.1691
thorax -4.36616 0.364641 3.13861
lowerneck -21.8049 -6.14115 -15.7629
upperneck 17.2542 -8.45693 23.9559
head 11.1432 -2.17089 10.4608
rclavicle -9.30312e-014 -1.74931e-014
rhumerus -54.1224 -27.0359 14.108
rradius 25.3458
rwrist 52.1194
rhand -28.7605 -11.5394
rfingers 7.12502
rthumb -2.12036 -41.5086
lclavicle -9.30312e-014 -1.74931e-014
lhumerus -34.2409 -11.5109 3.99331
lradius 26.449
lwrist -6.87442
lhand -28.8528 21.7258
lfingers 7.12502
lthumb -2.20957 51.6941
rfemur -8.70078 -218.747 5.78861
rtibia 25.6669
rfoot -34.5116 -47.6181
rtoes -29.1736
lfemur -26.7673 -26.6101 -3.78
ltibia 19.8596
lfoot -18.4798 1.14313
ltoes -20.8132
214
root 10.2409 19.5782 -9.8728 197.186 55.9996 184.256
lowerback 5.27894 0.934301 -8.92395
upperback -1.29744 0.623819 -1.97959
thorax -4.40386 0.549114 2.87782
lowerneck -21.3401 -6.26547 -16.3937
upperneck 16.9078 -8.53868 24.3675
head 11.0088 -2.25394 10.7147
rclavicle 7.95139e-016 3.81667e-014
rhumerus -53.404 -27.7406 14.6375
rradius 25.2287
rwrist 52.4155
rhand -28.7648 -11.4534
rfingers 7.12502
rthumb -2.12455 -41.4226
lclavicle 7.95139e-016 3.81667e-014
lhumerus -34.2406 -11.1904 3.41756
lradius 26.3514
lwrist -7.11234
lhand -29.2969 22.342
lfingers 7.12502
lthumb -2.6384 52.3054
rfemur -11.2001 -217.451 4.52739
rtibia 25.4589
rfoot -32.0808 -47.8056
rtoes -24.6313
lfemur -27.1061 -24.7055 -3.88949
ltibia 20.2905
lfoot -16.5656 -1.79481
ltoes -22.1136
215
root 10.1837 19.4632 -9.9367 198.524 58.3701 186.516
lowerback 5.6577 1.23121 -8.15619
upperback -1.09209 1.03622 -1.79595
thorax -4.43681 0.724264 2.60098
lowerneck -21.2686 -6.22422 -16.0016
upperneck 17.3247 -8.53486 23.5528
head 11.0572 -2.31529 10.3066
rclavicle 2.5842e-014 -3.97569e-014
rhumerus -52.3781 -29.016 15.3348
rradius 24.9723
rwrist 53.3839
rhand -28.9302 -11.8581
rfingers 7.12502
rthumb -2.28431 -41.8256
lclavicle 2.5842e-014 -3.97569e-014
lhumerus -34.5014 -11.0836 2.75655
lradius 25.8973
lwrist -8.44918
lhand -29.6852 22.7008
lfingers 7.12502
lthumb -3.01342 52.6592
rfemur -13.556 -215.255 3.36545
rtibia 25.3275
rfoot -30.7974 -48.2748
rtoes -21.5788
lfemur -27.2891 -21.9814 -4.4439
ltibia 21.2765
lfoot -12.7726 -5.45037
ltoes -13.5495
